<svg xmlns="http://www.w3.org/2000/svg" viewBox="391 376 548.609 216" width="130" height="30"><defs><style>.a{fill:#1c2139;}</style></defs><g transform="translate(215 148)"><g transform="translate(577 671) rotate(180)"><g transform="translate(176 238)"><path class="a" d="M103.5,202.919,53.445,104.773,0,.849,103.5,34.364Z"/><path class="a" d="M103,200.838V34.727L1,1.7,53.891,104.546,103,200.838M104,205,53,105-1,0,104,34Z"/></g><g transform="translate(297 238)"><path class="a" d="M-.5,202.919V34.364L103,.849,49.555,104.771Z"/><path class="a" d="M0,200.838l49.111-96.295L102,1.7,0,34.727V200.838M-1,205V34L104,0,50,105Z"/></g><g transform="translate(175 124)"><path class="a" d="M112.759,136.474,3.167,103.5H222.35Z" transform="translate(0.241)"/><path class="a" d="M113,135.949,219.183,104H6.817L113,135.949M113,137,0,103H226Z"/></g></g><path class="a" d="M18.238,126H1.836V-14h16.4ZM151.7,126H131.686L99.468,72.4a48.067,48.067,0,0,1-3.222-6.932h-.391q-.976,2.246-3.319,6.932L59.341,126H39.229L86.092,55.608,42.939-14H63.051L91.657,35.2a98.7,98.7,0,0,1,4.979,9.763h.391a107.8,107.8,0,0,1,5.467-10.154L132.272-14h18.843L107.083,55.412Zm37.686-52.916V126h-16.4V-14h38.467q22.455,0,34.806,10.935t12.35,30.852q0,19.917-13.717,32.609T207.839,73.084Zm0-72.247V58.244H206.57q16.988,0,25.921-7.762t8.933-21.918q0-27.727-32.8-27.727Z" transform="translate(466 278)"/></g></svg>