<svg xmlns="http://www.w3.org/2000/svg" viewBox="401 376 550.609 217">
  <defs>
    <style>
      .cls-1 {
        fill: #fff;
      }

      .cls-2 {
        fill: #fff;
      }
    </style>
  </defs>
  <g id="lightLogo" transform="translate(227 147)">
    <g id="Group_6" data-name="Group 6" transform="translate(576 671) rotate(180)">
      <g id="Group_3" data-name="Group 3" transform="translate(177 237)">
        <path id="Path_5" data-name="Path 5" class="cls-1" d="M103.5,202.919,53.445,104.773,0,.849,103.5,34.364Z"/>
        <path id="Path_6" data-name="Path 6" class="cls-2" d="M103,200.838V34.727L1,1.7,53.891,104.546,103,200.838M104,205,53,105-1,0,104,34Z"/>
      </g>
      <g id="Group_4" data-name="Group 4" transform="translate(298 237)">
        <path id="Path_7" data-name="Path 7" class="cls-1" d="M-.5,202.919V34.364L103,.849,49.555,104.771Z"/>
        <path id="Path_8" data-name="Path 8" class="cls-2" d="M0,200.838l49.111-96.295L102,1.7,0,34.727V200.838M-1,205V34L104,0,50,105Z"/>
      </g>
      <g id="Group_5" data-name="Group 5" transform="translate(176 122)">
        <path id="Path_9" data-name="Path 9" class="cls-1" d="M112.759,136.474,3.167,103.5H222.35Z" transform="translate(0.241)"/>
        <path id="Path_10" data-name="Path 10" class="cls-2" d="M113,135.949,219.183,104H6.817L113,135.949M113,137,0,103H226Z"/>
      </g>
    </g>
    <path id="Path_11" data-name="Path 11" class="cls-1" d="M18.238,126H1.836V-14h16.4ZM151.7,126H131.686L99.468,72.4a48.067,48.067,0,0,1-3.222-6.932h-.391q-.976,2.246-3.319,6.932L59.341,126H39.229L86.092,55.608,42.939-14H63.051L91.657,35.2a98.7,98.7,0,0,1,4.979,9.763h.391a107.8,107.8,0,0,1,5.467-10.154L132.272-14h18.843L107.083,55.412Zm37.686-52.916V126h-16.4V-14h38.467q22.455,0,34.806,10.935t12.35,30.852q0,19.917-13.717,32.609T207.839,73.084Zm0-72.247V58.244H206.57q16.988,0,25.921-7.762t8.933-21.918q0-27.727-32.8-27.727Z" transform="translate(466 278)"/>
  </g>
</svg>
