<svg xmlns="http://www.w3.org/2000/svg" width="101" height="29" viewBox="0 0 101 29">
    <g fill="none" fill-rule="evenodd" stroke="#363A4C" stroke-linecap="round" stroke-linejoin="round">
        <path d="M8.01 11.248c1.193-.025 2.343.072 3.48-.18 1.166-.258 1.875-.989 2.164-2.153.074-.298.123-.606.15-.912.132-1.51-.57-2.379-2.052-2.505-.717-.061-1.44-.065-2.16-.077-.5-.01-.712.19-.793.702-.064.41-.123.82-.187 1.23-.196 1.275-.394 2.55-.602 3.895zM9.45 1.075c1.245 0 2.49-.008 3.735.003 1.195.01 2.366.187 3.472.67 1.976.865 2.89 2.467 2.92 4.602.025 1.928-.384 3.772-1.328 5.46-1.152 2.059-2.963 3.162-5.2 3.57-.785.144-1.593.178-2.392.214-.778.035-1.559.002-2.338.01-.646.007-1.036.362-1.138 1.018-.273 1.744-.538 3.49-.818 5.233-.115.713-.49 1.018-1.202 1.019H1.776c-.6-.002-.85-.3-.757-.896L3.495 5.919c.197-1.276.394-2.553.603-3.828.116-.711.484-1.016 1.2-1.018 1.384-.003 2.768-.001 4.152-.001v.003zM62.93 11.26c1.246-.01 2.43.085 3.596-.201 1.021-.251 1.714-.886 2.003-1.917.132-.473.214-.975.228-1.466.034-1.176-.512-1.919-1.644-2.106-.854-.141-1.733-.127-2.601-.16-.498-.017-.71.197-.788.703-.155.994-.314 1.987-.468 2.98-.108.7-.21 1.4-.325 2.167zm1.398-10.172c1.28 0 2.559-.014 3.838.004 1.17.016 2.317.194 3.401.664 1.743.755 2.743 2.116 2.884 4.027.175 2.369-.32 4.608-1.649 6.592-1.17 1.747-2.881 2.63-4.875 3.01-1.381.265-2.78.198-4.173.204-.186 0-.373-.003-.559.004-.59.022-.983.352-1.08.955-.263 1.625-.51 3.253-.765 4.879-.042.27-.08.54-.133.806-.08.395-.336.625-.731.627-1.303.007-2.606.01-3.908-.001-.441-.004-.704-.344-.635-.789.497-3.206 1-6.412 1.495-9.618.478-3.09.95-6.18 1.426-9.27.06-.386.119-.773.191-1.157.118-.624.49-.936 1.121-.938 1.384-.004 2.768-.001 4.152-.001v.002zM27.677 11.956c-.22.018-.442.02-.66.057-2.088.357-3.526 2.043-3.55 4.203-.013 1.19.417 2.156 1.533 2.69 1.912.912 5.126.062 5.723-3.172.402-2.178-.882-3.76-3.046-3.778m3.716-2.017c.064-.39.11-.69.161-.99.07-.408.28-.608.688-.61 1.198-.008 2.397-.01 3.595 0 .495.005.737.33.657.866-.185 1.231-.38 2.46-.57 3.69-.458 2.952-.919 5.903-1.373 8.856-.12.78-.49 1.122-1.264 1.123h-3.002c-.584-.002-.826-.281-.753-.877.034-.269.084-.536.14-.881-.12.1-.193.159-.263.22-2.222 1.931-4.743 2.404-7.463 1.415-1.964-.714-2.967-2.344-3.356-4.355-.735-3.801 1.361-8.654 5.869-10.057 1.671-.52 3.35-.485 5.015.037.802.251 1.442.745 1.919 1.563M82.621 11.94c-.254.023-.511.027-.761.074-1.937.365-3.278 1.87-3.465 3.876-.146 1.559.59 2.786 1.925 3.194a4.207 4.207 0 0 0 1.967.105c2.257-.387 3.793-2.597 3.385-4.88-.26-1.452-1.415-2.343-3.05-2.37m3.73-2.06c.054-.33.102-.634.154-.937.068-.392.273-.587.663-.589 1.198-.007 2.396-.008 3.594 0 .465.003.733.333.662.794L89.719 20.1c-.097.62-.182 1.243-.295 1.86-.102.56-.491.895-1.05.9-1.082.011-2.163.01-3.245.001-.445-.003-.688-.274-.654-.729.024-.326.085-.65.14-1.051-.138.121-.222.197-.307.27-2.22 1.905-4.728 2.372-7.434 1.382-1.95-.713-2.947-2.332-3.333-4.328-.747-3.865 1.412-8.711 5.925-10.073 1.602-.484 3.212-.452 4.812.02.781.23 1.439.657 1.89 1.37.025.04.054.078.086.112.014.015.04.02.098.045M45.816 16.473c.108-.153.185-.254.255-.36 1.576-2.365 3.158-4.725 4.72-7.1.318-.484.707-.699 1.278-.686 1.105.026 2.21.012 3.316.006.3-.002.56.062.703.357.14.29.044.544-.127.795-4.05 5.957-8.1 11.915-12.142 17.878-.287.423-.645.609-1.144.602-1.117-.015-2.234-.008-3.351-.002-.306.001-.588-.033-.742-.35-.148-.305-.04-.566.14-.824 1.187-1.702 2.366-3.409 3.557-5.107.135-.194.165-.353.087-.583-1.298-3.856-2.586-7.715-3.876-11.573-.045-.135-.093-.27-.12-.409-.08-.398.166-.764.565-.77 1.268-.015 2.537-.025 3.805.006.53.013.81.4.955.898.44 1.51.884 3.02 1.328 4.53.258.88.518 1.76.793 2.692M97.576 1.083c.546 0 1.093-.003 1.64 0 .56.005.819.296.734.856-.282 1.85-.575 3.697-.861 5.546l-1.293 8.354c-.31 2.001-.612 4.003-.927 6.003-.11.696-.504 1.02-1.204 1.02-.966.002-1.93.003-2.896 0-.558-.001-.822-.301-.736-.856.45-2.926.908-5.85 1.36-8.776.453-2.937.902-5.874 1.353-8.812.14-.912.278-1.826.423-2.738.064-.402.285-.59.697-.595.57-.006 1.14-.001 1.71-.002"/>
    </g>
</svg>
