<svg xmlns="http://www.w3.org/2000/svg" width="81" height="32" viewBox="0 0 81 32">
    <g fill="none" fill-rule="evenodd" stroke="#363A4C" stroke-linecap="round" stroke-linejoin="round">
        <path d="M52.13 16.425h.04c0 1.136.014 2.273-.008 3.408-.006.356.125.582.399.779 1.115.804 3.262 1.117 4.446-.788.637-1.025.86-2.157.87-3.34.012-1.297-.223-2.534-.967-3.636-1.235-1.829-3.412-1.463-4.457-.546-.172.15-.302.44-.308.669-.031 1.15-.015 2.303-.015 3.454m-5.11 14.899V7.384h4.488l.288 1.198c.12-.065.218-.1.293-.163 2.665-2.223 6.629-1.693 8.851 1.189 1.187 1.539 1.756 3.305 1.939 5.218.209 2.182.05 4.325-.772 6.375-.913 2.274-2.466 3.867-4.95 4.374-1.596.326-3.096.073-4.469-.83a9.283 9.283 0 0 0-.355-.224c-.023-.014-.058-.006-.165-.012v.49c-.012 1.604-.031 3.208-.032 4.812 0 .31-.067.462-.414.53-1.555.303-3.103.645-4.701.983M70.156 14.527c1.716 0 3.408.004 5.1-.01.082-.002.224-.156.236-.251.145-1.167-.669-2.528-1.735-2.933-1.908-.725-3.852.953-3.601 3.194m9.133 5.808c0 1.319.011 2.549-.014 3.778-.003.148-.17.35-.314.427-1.115.586-2.316.9-3.56 1.055-1.59.198-3.174.178-4.723-.28-2.917-.862-4.65-2.874-5.342-5.763-.602-2.515-.546-5.042.427-7.478 1.12-2.803 3.123-4.564 6.176-4.984 3.236-.445 6.148 1.245 7.453 4.268.945 2.192 1.087 4.482.912 6.88H70.233c-.091 1.159.621 2.288 1.735 2.784.997.444 2.052.465 3.118.394a11.476 11.476 0 0 0 4.203-1.081M1.716 19.857c1.154.406 2.25.843 3.377 1.173 1 .293 2.037.455 3.091.254.572-.109 1.04-.343 1.18-.97.113-.51-.11-1.022-.723-1.336-.744-.383-1.537-.667-2.31-.995-.714-.303-1.452-.563-2.14-.92-2.3-1.194-3.19-3.241-2.525-5.752.546-2.064 1.962-3.29 3.945-3.857 2.603-.744 5.179-.463 7.703.427.124.044.28.228.282.349.014 1.448.003 2.896-.004 4.345 0 .025-.03.05-.03.052-.89-.291-1.76-.625-2.658-.856-1.025-.264-2.073-.436-3.142-.254-.613.105-.95.38-1.043.85-.098.488.064.908.622 1.185.706.351 1.462.603 2.194.903.777.318 1.575.593 2.321.972 1.812.92 2.76 2.4 2.766 4.46.006 2.092-.845 3.702-2.666 4.757-1.664.964-3.499 1.164-5.373 1.064a13.659 13.659 0 0 1-4.533-1.016c-.138-.057-.318-.238-.32-.363-.022-1.494-.014-2.989-.014-4.472M25.694 21.051v3.224c0 .863.008.894-.862 1.108-1.912.47-3.825.64-5.614-.422-1.56-.926-2.445-2.341-2.459-4.148-.043-5.496-.016-10.993-.002-16.489 0-.134.147-.362.262-.388 1.531-.34 3.07-.652 4.607-.97.027-.005.06.014.129.03v4.397h1.466c.701 0 1.403-.013 2.103.015.126.005.351.176.353.274.024 1.32.016 2.641.016 4.025h-3.914c-.012.212-.029.363-.029.513-.001 2.243-.002 4.485 0 6.727.001.233-.002.47.039.699.179 1.01.862 1.616 1.921 1.614.644-.001 1.288-.131 1.984-.209M33.534 25.33h-5.102c-.008-.159-.024-.322-.024-.486-.001-5.636.004-11.273-.01-16.909-.002-.435.125-.559.548-.55 1.137.024 2.275.028 3.411-.002.405-.011.552.142.604.508.043.305.13.604.322.996.036-.083.057-.177.109-.248.892-1.23 2.252-1.73 3.739-1.354.14.036.346.217.348.333.017 1.415.001 2.832-.008 4.248 0 .026-.028.053-.061.114-.627 0-1.275-.04-1.915.016-.343.03-.688.194-1 .357-.642.335-.997.787-.984 1.617.053 3.58.023 7.162.023 10.743v.617zM44.966 25.355c-1.635 0-3.236.005-4.837-.012-.098 0-.22-.153-.281-.262-.047-.085-.014-.213-.014-.322V8.042c0-.646.002-.648.638-.648 1.355-.001 2.71.002 4.064-.002.274-.001.468.01.467.386-.01 5.775-.008 11.55-.009 17.324 0 .06-.013.121-.028.253M44.971.542v4.12l-5.083 1.083c-.02-.176-.051-.32-.052-.465-.004-1.074.005-2.149-.007-3.223-.003-.311.076-.465.42-.532 1.569-.307 3.131-.649 4.722-.983"/>
    </g>
</svg>
