<svg xmlns="http://www.w3.org/2000/svg" width="53" height="38" viewBox="0 0 53 38">
    <g fill="none" fill-rule="evenodd">
        <path stroke="#363A4C" stroke-linecap="round" stroke-linejoin="round" d="M49.018 36.941H4.428C2.535 36.941 1 35.427 1 33.56V4.384C1 2.514 2.535 1 4.428 1h44.59c1.892 0 3.428 1.515 3.428 3.384v29.175c0 1.868-1.536 3.382-3.428 3.382zM31.54 13.17h14.066M31.54 18.97h14.066M31.54 25.246h7.9"/>
        <path fill="#363A4C" d="M13.02 22.93c0-.174.145-.316.321-.316h7.325c.177 0 .32.142.32.316a.32.32 0 0 1-.32.317h-7.325a.32.32 0 0 1-.32-.317"/>
        <path fill="#363A4C" stroke="#363A4C" stroke-width=".3" d="M20.986 22.93c0 .775.638 1.406 1.422 1.406.786 0 1.425-.631 1.425-1.406 0-.774-.639-1.405-1.425-1.405-.784 0-1.422.631-1.422 1.405m-.641 0c0-1.123.926-2.037 2.063-2.037 1.14 0 2.064.914 2.064 2.037 0 1.123-.925 2.037-2.064 2.037-1.137 0-2.063-.914-2.063-2.037M10.174 22.93c0 .775.639 1.406 1.424 1.406.784 0 1.423-.631 1.423-1.406 0-.774-.639-1.405-1.423-1.405-.785 0-1.424.631-1.424 1.405m-.64 0c0-1.123.924-2.037 2.064-2.037 1.139 0 2.064.914 2.064 2.037 0 1.123-.926 2.037-2.064 2.037s-2.065-.914-2.065-2.037"/>
        <path fill="#363A4C" stroke="#363A4C" stroke-width=".3" d="M13.018 22.93c0-.174.144-.316.32-.316h7.326c.178 0 .32.142.32.316a.32.32 0 0 1-.32.317H13.34a.32.32 0 0 1-.321-.317"/>
        <path fill="#363A4C" stroke="#363A4C" stroke-width=".3" d="M6.892 22.044l-.34-2.16a1.195 1.195 0 0 1 1.046-1.365l4.174-.502 3.785-3.14c.37-.307.84-.475 1.323-.475h6.037c.517 0 .993.256 1.272.685l1.74 2.688 2.067.614a1.31 1.31 0 0 1 .923 1.45l-.306 1.93a1.752 1.752 0 0 1-1.748 1.477h-2.712a.318.318 0 0 1-.32-.318c0-.173.143-.315.32-.315h2.711c.56 0 1.03-.396 1.115-.943l.305-1.928a.674.674 0 0 0-.476-.747l-2.178-.649a.312.312 0 0 1-.177-.13l-1.805-2.788a.868.868 0 0 0-.731-.395H16.88c-.334 0-.656.117-.912.327l-3.857 3.201a.322.322 0 0 1-.168.072l-4.268.513a.56.56 0 0 0-.492.641l.342 2.16c.06.386.393.668.79.668h1.54c.177 0 .32.142.32.315a.318.318 0 0 1-.32.317h-1.54a1.428 1.428 0 0 1-1.424-1.203"/>
        <path fill="#363A4C" d="M15.352 18.246h7.394c.274 0 .497.222.497.492s-.223.49-.497.49h-7.394a.495.495 0 0 1-.497-.49c0-.27.223-.492.497-.492z"/>
    </g>
</svg>
