<?xml version="1.0" encoding="UTF-8"?>
<svg width="214px" height="238px" viewBox="0 0 214 238" version="1.1" xmlns="http://www.w3.org/2000/svg" xmlns:xlink="http://www.w3.org/1999/xlink">
    <!-- Generator: sketchtool 51.2 (57519) - http://www.bohemiancoding.com/sketch -->
    <title>C7B8BA88-A326-4FC6-AF70-013965B4A232</title>
    <desc>Created with sketchtool.</desc>
    <defs></defs>
    <g id="Page-1" stroke="none" stroke-width="1" fill="none" fill-rule="evenodd">
        <g id="email-verification" transform="translate(-619.000000, -269.000000)">
            <g id="Verify-your-email" transform="translate(603.000000, 247.000000)">
                <g id="small" transform="translate(115.500000, 89.000000) scale(-1, 1) translate(-115.500000, -89.000000) ">
                    <path d="M183.058824,149.810811 C181.824305,149.810811 180.823529,148.721774 180.823529,147.378378 C180.823529,146.034983 181.824305,144.945946 183.058824,144.945946 C184.293342,144.945946 185.294118,146.034983 185.294118,147.378378 C185.294118,148.721774 184.293342,149.810811 183.058824,149.810811 Z M44.4705882,125.486486 C43.2360694,125.486486 42.2352941,124.397449 42.2352941,123.054054 C42.2352941,121.710659 43.2360694,120.621622 44.4705882,120.621622 C45.7051071,120.621622 46.7058824,121.710659 46.7058824,123.054054 C46.7058824,124.397449 45.7051071,125.486486 44.4705882,125.486486 Z M51.1764706,110.891892 C49.9419517,110.891892 48.9411765,109.802855 48.9411765,108.459459 C48.9411765,107.116064 49.9419517,106.027027 51.1764706,106.027027 C52.4109894,106.027027 53.4117647,107.116064 53.4117647,108.459459 C53.4117647,109.802855 52.4109894,110.891892 51.1764706,110.891892 Z M64.5882353,98.7297297 C63.3537164,98.7297297 62.3529412,97.6406926 62.3529412,96.2972973 C62.3529412,94.953902 63.3537164,93.8648649 64.5882353,93.8648649 C65.8227541,93.8648649 66.8235294,94.953902 66.8235294,96.2972973 C66.8235294,97.6406926 65.8227541,98.7297297 64.5882353,98.7297297 Z M82.4705882,93.8648649 C81.2360694,93.8648649 80.2352941,92.7758278 80.2352941,91.4324324 C80.2352941,90.0890371 81.2360694,89 82.4705882,89 C83.7051071,89 84.7058824,90.0890371 84.7058824,91.4324324 C84.7058824,92.7758278 83.7051071,93.8648649 82.4705882,93.8648649 Z M102.588235,93.8648649 C101.353716,93.8648649 100.352941,92.7758278 100.352941,91.4324324 C100.352941,90.0890371 101.353716,89 102.588235,89 C103.822754,89 104.823529,90.0890371 104.823529,91.4324324 C104.823529,92.7758278 103.822754,93.8648649 102.588235,93.8648649 Z M120.470588,93.8648649 C119.236069,93.8648649 118.235294,92.7758278 118.235294,91.4324324 C118.235294,90.0890371 119.236069,89 120.470588,89 C121.705107,89 122.705882,90.0890371 122.705882,91.4324324 C122.705882,92.7758278 121.705107,93.8648649 120.470588,93.8648649 Z M160.705882,93.8648649 C159.471364,93.8648649 158.470588,92.7758278 158.470588,91.4324324 C158.470588,90.0890371 159.471364,89 160.705882,89 C161.940401,89 162.941176,90.0890371 162.941176,91.4324324 C162.941176,92.7758278 161.940401,93.8648649 160.705882,93.8648649 Z M180.823529,103.594595 C179.589011,103.594595 178.588235,102.505557 178.588235,101.162162 C178.588235,99.8187668 179.589011,98.7297297 180.823529,98.7297297 C182.058048,98.7297297 183.058824,99.8187668 183.058824,101.162162 C183.058824,102.505557 182.058048,103.594595 180.823529,103.594595 Z M192,125.486486 C190.765481,125.486486 189.764706,124.397449 189.764706,123.054054 C189.764706,121.710659 190.765481,120.621622 192,120.621622 C193.234519,120.621622 194.235294,121.710659 194.235294,123.054054 C194.235294,124.397449 193.234519,125.486486 192,125.486486 Z M165.176471,157.108108 C163.941952,157.108108 162.941176,156.019071 162.941176,154.675676 C162.941176,153.33228 163.941952,152.243243 165.176471,152.243243 C166.410989,152.243243 167.411765,153.33228 167.411765,154.675676 C167.411765,156.019071 166.410989,157.108108 165.176471,157.108108 Z M147.294118,149.810811 C146.059599,149.810811 145.058824,148.721774 145.058824,147.378378 C145.058824,146.034983 146.059599,144.945946 147.294118,144.945946 C148.528636,144.945946 149.529412,146.034983 149.529412,147.378378 C149.529412,148.721774 148.528636,149.810811 147.294118,149.810811 Z M138.352941,132.783784 C137.118422,132.783784 136.117647,131.694747 136.117647,130.351351 C136.117647,129.007956 137.118422,127.918919 138.352941,127.918919 C139.58746,127.918919 140.588235,129.007956 140.588235,130.351351 C140.588235,131.694747 139.58746,132.783784 138.352941,132.783784 Z M136.117647,113.324324 C134.883128,113.324324 133.882353,112.235287 133.882353,110.891892 C133.882353,109.548497 134.883128,108.459459 136.117647,108.459459 C137.352166,108.459459 138.352941,109.548497 138.352941,110.891892 C138.352941,112.235287 137.352166,113.324324 136.117647,113.324324 Z M138.352941,93.8648649 C137.118422,93.8648649 136.117647,92.7758278 136.117647,91.4324324 C136.117647,90.0890371 137.118422,89 138.352941,89 C139.58746,89 140.588235,90.0890371 140.588235,91.4324324 C140.588235,92.7758278 139.58746,93.8648649 138.352941,93.8648649 Z M149.529412,76.8378378 C148.294893,76.8378378 147.294118,75.7488007 147.294118,74.4054054 C147.294118,73.0620101 148.294893,71.972973 149.529412,71.972973 C150.763931,71.972973 151.764706,73.0620101 151.764706,74.4054054 C151.764706,75.7488007 150.763931,76.8378378 149.529412,76.8378378 Z M162.941176,64.6756757 C161.706658,64.6756757 160.705882,63.5866386 160.705882,62.2432432 C160.705882,60.8998479 161.706658,59.8108108 162.941176,59.8108108 C164.175695,59.8108108 165.176471,60.8998479 165.176471,62.2432432 C165.176471,63.5866386 164.175695,64.6756757 162.941176,64.6756757 Z M183.058824,59.8108108 C181.824305,59.8108108 180.823529,58.7217737 180.823529,57.3783784 C180.823529,56.034983 181.824305,54.9459459 183.058824,54.9459459 C184.293342,54.9459459 185.294118,56.034983 185.294118,57.3783784 C185.294118,58.7217737 184.293342,59.8108108 183.058824,59.8108108 Z M200.941176,62.2432432 C199.706658,62.2432432 198.705882,61.1542061 198.705882,59.8108108 C198.705882,58.4674155 199.706658,57.3783784 200.941176,57.3783784 C202.175695,57.3783784 203.176471,58.4674155 203.176471,59.8108108 C203.176471,61.1542061 202.175695,62.2432432 200.941176,62.2432432 Z M218.823529,71.972973 C217.589011,71.972973 216.588235,70.8839359 216.588235,69.5405405 C216.588235,68.1971452 217.589011,67.1081081 218.823529,67.1081081 C220.058048,67.1081081 221.058824,68.1971452 221.058824,69.5405405 C221.058824,70.8839359 220.058048,71.972973 218.823529,71.972973 Z" id="Oval-6" fill="#FFE084" transform="translate(131.647059, 106.027027) scale(-1, 1) rotate(-14.000000) translate(-131.647059, -106.027027) "></path>
                    <g id="Triangle-1-+-Triangle-5">
                        <polygon id="Triangle-2" fill="#5D5FCF" transform="translate(47.472617, 42.044293) rotate(-54.000000) translate(-47.472617, -42.044293) " points="53.4535606 41.1688552 42.3765515 45.1626141 41.4916744 38.9259715"></polygon>
                        <polygon id="Triangle-1" fill="#F8C11C" transform="translate(29.948947, 27.117863) rotate(-54.000000) translate(-29.948947, -27.117863) " points="17.2936019 1.04905959 44.4424277 52.4171899 35.1148937 50.4030716 23.077301 53.1866668 22.1609172 47.6721187 15.4554664 46.6240648"></polygon>
                        <polygon id="Triangle-2" fill="#F8A11C" transform="translate(27.704033, 30.372575) rotate(-54.000000) translate(-27.704033, -30.372575) " points="18.8033678 4.40066857 36.6046975 53.7269895 24.7850311 56.3444809 27.250037 52.0814132"></polygon>
                    </g>
                </g>
                <g id="Group-2" transform="translate(30.000000, 49.000000)">
                    <path d="M172.797931,124.443856 L172.01317,192.396031 C172.01317,199.275538 166.17756,202.532972 158.984245,199.673809 L52.5841475,157.382437 C45.3884707,154.522336 39.5552221,146.625494 39.5552221,139.747316 L39.5552221,71.2199038 C39.5552221,64.3403967 45.3908316,61.0829629 52.5841475,63.9421258 L158.984245,106.233498 C161.31425,107.159617 166.726971,107.648977 168.619484,109.425717 C172.571554,113.136023 172.797931,119.792875 172.797931,124.443856 Z" id="Rectangle-3" fill="#7577FF"></path>
                    <path d="M64.4381302,33.2327575 L66.198431,32.6408172 L69.3579965,32.7428672 L72.2016866,33.1753443 C72.2016866,33.1753443 145.811218,48.3300908 176.055434,55.2177694 C177.413431,55.5270333 178.060306,55.5412198 179.76857,56.0379126 C180.440101,56.2331661 181.633039,57.1109522 181.633039,57.1109522 L184.177519,59.4802583 L150.758773,120.614026 L58.6669226,120.086385 C58.6669226,120.086385 60.4646617,72.4145998 61.4942911,43.7724268 C61.5071912,43.4135728 62.8752654,38.1694734 62.8752654,38.1694734 L63.6440706,35.3760386 L64.4381302,33.2327575 Z" id="Rectangle-5" fill="#5355C0" transform="translate(121.422221, 76.627422) rotate(47.000000) translate(-121.422221, -76.627422) "></path>
                    <path d="M52.7588198,47.9125909 L52.8440141,41.2886831 C52.8440141,41.2886831 61.8437089,42.8880464 63.0743147,43.0519682 C100.078261,47.9810456 173.01274,63.3381758 173.01274,63.3381758 L143.796872,120.237493 L52.8224444,124.174783 L52.7588198,47.9125909 Z" id="Rectangle" fill="#5D5FCF" transform="translate(112.885780, 82.731733) rotate(49.000000) translate(-112.885780, -82.731733) "></path>
                    <path d="M157.700425,167.833086 C157.700425,167.833086 123.548898,136.819627 104.873385,130.160604 C88.3308709,124.262133 52.0463449,130.160604 52.0463449,130.160604 L52.0463449,38.692624 L157.700425,76.3651059 L157.700425,167.833086 Z" id="Rectangle-7" fill="#FFFFFF"></path>
                    <path d="M155.35834,76.1113432 L157.700425,76.1113432 L157.700425,83.1273531 C157.700425,83.1273531 157.426977,83.2253828 157.302148,83.1273531 C156.646282,82.612294 155.35834,81.2880866 155.35834,81.2880866 L155.35834,76.1113432 Z" id="Rectangle-9" fill="#D8D8D8"></path>
                    <polygon id="Rectangle-8" fill="#CED3E3" points="148.852546 96.1118436 61.414687 64.6778457 61.414687 57.4019836 148.852546 88.8359815"></polygon>
                    <path d="M52.3065766,45.5132678 C46.6439347,43.0965975 52.3065766,38.4327718 52.3065766,38.4327718 L157.708299,76.1974267 C157.708299,76.1974267 155.883886,79.1190886 155.883886,80.4709732 C155.883886,81.4792539 157.708299,83.4413228 157.708299,83.4413228 C157.708299,83.4413228 57.9692186,47.929938 52.3065766,45.5132678 Z" id="Rectangle-8" fill="#ECECEC"></path>
                    <polygon id="Rectangle-8" fill="#CED3E3" points="61.414687 79.7767476 61.414687 78.190161 148.852546 109.525632 148.852546 111.112219"></polygon>
                    <polygon id="Rectangle-8" fill="#CED3E3" points="61.414687 88.0920186 61.414687 86.5054319 148.852546 117.840903 148.852546 119.42749"></polygon>
                    <polygon id="Rectangle-8" fill="#CED3E3" points="61.414687 96.9269939 61.414687 95.3404073 148.852546 126.675878 148.852546 128.262465"></polygon>
                    <polygon id="Rectangle-8" fill="#CED3E3" points="61.414687 105.242265 61.414687 103.655678 148.852546 134.991149 148.852546 136.577736"></polygon>
                    <path d="M151.16639,113.159197 L178.093478,171.412822 C178.093478,171.412822 175.524623,173.222599 174.24972,173.470053 C153.676913,177.46317 116.724992,184.29014 103.790123,186.597291 C100.918506,187.109493 99.2365965,186.718693 99.2365965,186.718693 L151.16639,113.159197 Z" id="Triangle" fill="#7577FF" transform="translate(138.665037, 150.010256) rotate(-79.000000) translate(-138.665037, -150.010256) "></path>
                    <path d="M80.5465127,72.9328836 L109.579267,132.134469 C109.579267,132.134469 108.172689,133.771137 105.785775,134.371855 C93.7872096,137.391551 57.6802341,145.763385 36.6143576,150.318046 C35.9777497,150.455687 33.7036496,150.512443 32.0900753,149.998169 C30.8534583,149.604038 30.1006617,148.801715 30.1006617,148.801715 L80.5465127,72.9328836 Z" id="Triangle-2" fill="#7577FF" transform="translate(69.839964, 111.672993) rotate(103.000000) translate(-69.839964, -111.672993) "></path>
                    <path d="M165.408011,112.393717 L173.718908,110.291045 L176.565192,109.261279 C176.565192,109.261279 176.497992,108.923156 176.741052,109.797288 C176.761776,109.871818 176.741052,111.697648 176.741052,111.697648 L176.741052,114.519226 C176.741052,114.519226 176.729195,117.452881 176.741052,118.684475 C176.880172,133.135608 177.221165,168.617004 176.741052,189.190197 C176.727111,189.787558 175.788677,193.581309 173.718908,196.043799 C171.575167,198.594296 168.297752,199.805566 168.297752,199.805566 L164.147768,200.783565 C164.147768,200.783565 165.817937,199.079639 166.864445,196.645723 C167.89062,194.259094 168.293491,191.144376 168.297752,190.864518 C168.62778,169.189974 168.522968,132.087344 168.297752,119.700538 C168.281183,118.789261 167.782811,116.809077 167.245898,115.732906 C167.049751,115.339758 166.841255,114.956007 166.694176,114.729912 C166.308893,114.137646 166.184386,113.895416 166.184386,113.895416 L165.408011,112.393717 Z" id="Rectangle-4" fill="#5355C0"></path>
                    <path d="M6.77025625,102.443067 L0.395998747,102.443067 L6.94542743,95.7800822 C7.11875782,95.4390358 7.40967412,95.2431322 7.76797822,95.246404 L43.7968273,95.111013 C44.0490292,95.1337507 44.3206313,95.2363609 44.5728333,95.4041852 L80.6016823,122.762703 C81.1920011,123.203353 81.5994043,124.04643 81.5994043,124.880678 L81.5994043,175.153182 C81.5994043,195.13886 57.4905614,203.87628 44.5839191,204.07823 C44.4536609,204.101563 44.3206313,204.051304 44.1848303,203.999999 C44.0490292,203.948694 43.9159996,203.898436 43.78297,203.775635 C30.8790992,193.82257 6.77025625,166.868689 6.77025625,146.883011 L6.77025625,102.443067 Z" id="Combined-Shape" fill="#F8AE1C"></path>
                    <path d="M37.026571,101.965212 L0.997721974,102.100603 C0.407403139,102.095213 0,102.630458 0,103.464706 L0,153.73721 C-4.86119383e-13,173.722888 24.1088429,200.676769 37.0127138,210.629834 C37.1457434,210.752635 37.278773,210.802893 37.414574,210.854198 C37.5503751,210.905503 37.6834047,210.955761 37.8136628,210.932429 C50.7203051,210.730479 74.829148,201.993059 74.829148,182.007381 L74.829148,131.734877 C74.829148,130.900629 74.4217449,130.057552 73.831426,129.616902 L37.802577,102.258384 C37.5503751,102.09056 37.278773,101.98795 37.026571,101.965212 Z" id="Fill-1416" fill="#F8C11C"></path>
                    <path d="M74.6459377,130.699779 L80.7973154,123.373304 C80.7973154,123.373304 81.1876806,123.746103 81.3196301,124.369333 C81.4493869,124.982207 81.6836149,126.31103 81.6836149,126.31103 L81.3196301,178.272414 C81.3196301,178.272414 79.8619775,184.394951 78.4482912,186.725722 C76.6145326,189.749074 71.5772954,194.334782 71.5772954,194.334782 C71.5772954,194.334782 74.3628002,189.086775 74.8773429,181.300371 C75.2572453,175.551435 74.8917329,168.586921 74.8773429,161.513035 C74.8532188,149.654009 74.9507186,137.641864 74.8773429,131.662022 C74.8739209,131.383136 74.6459377,130.699779 74.6459377,130.699779 Z" id="Rectangle-2" fill="#F8A11C"></path>
                    <path d="M44.0900849,138.056066 L44.0900849,150.242641 L26.1005468,144.26368 L26.1005468,132.436873 C26.1005468,127.104058 30.1361998,124.027524 35.0953158,125.527106 C40.0544318,126.963285 44.0900849,132.561029 44.0900849,138.056066 Z M47.5923627,179.060417 C46.9815391,179.472941 45.7981817,179.342889 45.2573118,179.90112 C44.3398949,180.847985 44.7733606,186.190205 43.2546647,185.755739 C43.2546647,185.755739 35.0507356,179.413206 24.8030718,175.411126 C24.3902686,175.249912 22.6979452,175.411126 22.6979452,175.411126 C19.9435471,174.047717 22.6979452,172.944424 22.6979452,170.069942 L22.6979452,166.111918 C22.6979452,163.612368 17.091663,156.914695 19.3703378,157.331313 L18.1051966,129.609859 C18.1051966,119.746632 25.7267642,114.046845 35.0953158,116.773582 C40.6115266,118.273172 45.839149,122.457005 49.0189405,127.810859 C49.3007662,128.245126 49.6171734,128.73381 49.9159852,129.197798 C50.5763918,130.223263 51.1067552,131.482346 51.3196233,132.047788 C51.5755311,132.727556 51.8876645,134.249652 52.0807482,135.230227 C52.3382795,136.538098 52.2602956,138.240748 52.2602956,138.240748 C52.2602956,138.240748 52.2704818,139.333928 52.1302706,140.232853 C52.1259024,142.528156 52.1088636,145.277656 52.0854351,148.13497 L52.0854351,159.469901 C52.7726411,161.549542 53.6034835,164.925007 53.6174004,169.117208 C53.64119,176.28339 51.8302684,183.233126 50.2358292,186.535027 C49.3042599,188.4642 42.9471211,192.100699 42.0438864,190.887508 C41.4011782,190.024247 46.2950678,184.570334 46.2950678,184.570334 C46.2950678,184.570334 46.921695,182.178182 47.5923627,179.060417 Z M47.8966142,177.606965 C48.4514852,174.878038 48.9764025,171.824402 49.1415027,169.38966 C49.1443882,169.347108 49.147182,169.304476 49.1498854,169.261766 C48.9786939,168.811019 48.7145089,168.028642 48.7292169,167.526916 C48.7641358,166.335742 48.8108414,165.030765 48.8582321,163.806417 C47.4739887,162.584011 46.2226022,161.842237 46.2226022,162.893996 L47.8966139,177.606962 Z" id="Combined-Shape" fill="#F8A11C"></path>
                    <path d="M173.211932,210.093301 L173.211932,205.088426 L173.211932,210.093301 Z" id="Triangle-5" fill="#C19E09"></path>
                    <path d="M26.1549078,142.909223 C26.2365724,142.883143 28.5882727,142.154425 33.1650054,143.216602 C37.8240474,144.297882 41.3651075,147.394638 41.3651075,147.394638 L41.3638639,151.58756 C41.3638639,151.58756 35.7606871,148.048109 32.0563243,146.814967 C28.6443942,145.679173 24.117721,145.592605 23.4242879,145.586016 L23.2186928,145.783331 C23.2186928,145.783331 23.1511222,136.890298 23.4476662,132.411726 C23.5036041,131.566922 24.2761383,129.813204 24.2761383,129.813204 C24.2761383,129.813204 25.1641594,128.267464 25.819732,127.771943 C26.5479111,127.221542 28.4273934,126.675438 28.4273934,126.675438 C28.4273934,126.675438 26.5389896,129.105955 26.3728588,130.29789 C25.809866,134.337181 26.124292,142.18462 26.1549078,142.909223 Z" id="Combined-Shape" fill="#F8AE1C"></path>
                    <path d="M48.9716655,159.589306 C49.6711016,161.647708 50.559529,165.110131 50.5739241,169.446384 C50.5977137,176.612566 49.3512012,183.923873 47.7567619,187.225774 C47.2559443,188.26291 45.5514457,190.05751 43.83706,191.047118 C40.8969796,192.885449 36.9640881,193.016798 32.2834434,191.261811 C21.5678271,187.244038 14.7845471,176.360669 14.7845471,162.890554 C14.7845471,159.023719 15.3520308,155.791854 16.413856,153.244639 L15.3970941,130.96561 C15.3970941,121.102383 23.0186617,115.402596 32.3872133,118.129332 C41.755765,120.676187 49.3773326,131.138169 49.3773326,141.579642 L48.9716655,159.589306 Z M41.3819824,139.411817 C41.3819824,133.91678 37.3463293,128.319035 32.3872133,126.882857 C27.4280973,125.383275 23.3924443,128.459809 23.3924443,133.792624 L23.3924443,145.619431 C23.3924443,145.619431 28.4917108,145.673156 30.9820608,146.500843 C34.4882235,147.666143 41.3819824,151.598392 41.3819824,151.598392 L41.3819824,139.411817 Z" id="Combined-Shape" fill="#FFE084"></path>
                    <path d="M36.3848885,178.351889 L28.3895382,175.374779 C28.0617289,175.245414 27.7559067,174.950598 27.568016,174.593935 C27.3821241,174.216402 27.3381497,173.830293 27.4540822,173.550975 L29.5348721,168.309973 C28.207644,166.810434 27.3901194,164.851398 27.3901194,163.051492 C27.3901194,160.058878 29.6328152,158.437275 32.3872133,159.399064 C35.1416115,160.328258 37.3843072,163.530245 37.3843072,166.573009 C37.3843072,168.403077 36.5667827,169.804158 35.2395545,170.362577 L37.3203444,177.200692 C37.436277,177.57129 37.3923026,177.931004 37.2064107,178.175481 C37.01852,178.396885 36.7126978,178.466647 36.3848885,178.351889 Z" id="Path" fill="#F8A11C"></path>
                    <path d="M30.9934536,176.41709 C30.9934536,176.41709 29.1741923,175.571848 28.9899158,175.20893 C28.7989427,174.824775 29.7620175,173.785779 29.7724738,173.501562 L31.4793982,168.079742 C30.1958597,166.553903 29.7111051,165.58809 29.3220239,163.756616 C29.0797623,162.616248 29.3889383,161.880473 29.7724738,161.196196 C30.1451655,160.531265 30.422136,160.188694 30.9934536,160.085734 C31.1717232,160.053607 31.9803968,159.932815 32.5,160 C33.177488,160.0876 33.5815187,160.355107 34,160.5 C35.1446385,160.901949 35.9889372,161.590206 36.5,162.5 C37.1441009,163.599078 37.5582622,164.326959 37.5,166 C37.4712818,166.824663 37.2132578,168.329678 36.855318,169 C36.4049961,169.843328 36.0181261,170.183421 35.5,170.5 C36.0261046,172.783233 37.2923829,177.220247 37.2923829,177.220247 C37.3122122,177.379574 37.1517139,178.148322 37.1198395,178.314459 C37.0762731,178.541538 36.9137821,178.1708 36.855318,178.314459 C36.7559906,178.539747 36.0141259,178.138905 35.854544,178.022134 L30.9934536,176.41709 Z" id="Path" fill="#F8C11C"></path>
                </g>
            </g>
        </g>
    </g>
</svg>