<svg xmlns="http://www.w3.org/2000/svg" width="27" height="27" viewBox="0 0 27 27">
    <g fill="none" fill-rule="evenodd" stroke="#7577FF" transform="translate(1 1)">
        <circle cx="12.5" cy="12.5" r="12.5"/>
        <path d="M9.475 10.385H7.138v7.022h2.337zM9.63 8.213C9.613 7.524 9.121 7 8.321 7S7 7.524 7 8.213c0 .674.507 1.214 1.292 1.214h.015c.815 0 1.322-.54 1.322-1.214zM17.903 13.38c0-2.156-1.152-3.16-2.69-3.16-1.241 0-1.797.682-2.107 1.16v-.995H10.77c.03.66 0 7.022 0 7.022h2.337v-3.922c0-.21.015-.419.077-.569.169-.42.554-.853 1.2-.853.845 0 1.183.644 1.183 1.587v3.757h2.337V13.38z"/>
    </g>
</svg>
