<svg xmlns="http://www.w3.org/2000/svg" width="27" height="27" viewBox="0 0 27 27">
    <g fill="none" fill-rule="evenodd" stroke="#7577FF" transform="translate(1 1)">
        <circle cx="12.5" cy="12.5" r="12.5"/>
        <path stroke-linecap="round" stroke-linejoin="round" d="M17.476 14.815v1.572a1.048 1.048 0 0 1-1.142 1.047 10.366 10.366 0 0 1-4.52-1.608 10.214 10.214 0 0 1-3.143-3.143 10.366 10.366 0 0 1-1.608-4.541A1.048 1.048 0 0 1 8.105 7h1.572c.526-.005.974.38 1.047.901.067.503.19.997.367 1.472.144.383.052.814-.236 1.105l-.665.665a8.381 8.381 0 0 0 3.143 3.143l.665-.665c.29-.288.722-.38 1.105-.236.476.178.97.3 1.472.367.527.074.914.531.901 1.063z"/>
    </g>
</svg>
